# xmcd CD database file
#
# Track frame offsets:
#	150
#	17127
#	32645
#	48032
#	63110
#	78235
#	92842
#	108532
#	123522
#	137807
#	151560
#	164307
#	179505
#	193575
#
# Disc length: 2775 seconds
#
# Revision: 0
# Processed by: cddbd v1.5.1PL2 Copyright (c) Steve Scherf et al.
# Submitted via: CDex 1.51
#
DISCID=ab0ad50e
DTITLE=D'Angelis - Tranquility - Morning Light  (new age relaxation)
DYEAR=1996
DGENRE=New Age
TTITLE0=Greens
TTITLE1=Sweet Orange
TTITLE2=Platonic Love
TTITLE3=Thoughtful
TTITLE4=Golden Years
TTITLE5=Daisy
TTITLE6=Mood
TTITLE7=Backwater
TTITLE8=Flora
TTITLE9=Fauna
TTITLE10=Color of Water
TTITLE11=Sky Angel
TTITLE12=Plumes
TTITLE13=Ridge
EXTD=YEAR: 1996
EXTT0=
EXTT1=
EXTT2=
EXTT3=
EXTT4=
EXTT5=
EXTT6=
EXTT7=
EXTT8=
EXTT9=
EXTT10=
EXTT11=
EXTT12=
EXTT13=
PLAYORDER=
